<?xml version="1.0" standalone="no"?>
<!DOCTYPE svg PUBLIC "-//W3C//DTD SVG 20010904//EN"
 "http://www.w3.org/TR/2001/REC-SVG-20010904/DTD/svg10.dtd">
<svg version="1.0" xmlns="http://www.w3.org/2000/svg"
 width="700.000000pt" height="700.000000pt" viewBox="0 0 700.000000 700.000000"
 preserveAspectRatio="xMidYMid meet">
<metadata>
Created by potrace 1.14, written by Peter Selinger 2001-2017
</metadata>
<g transform="translate(0.000000,700.000000) scale(0.100000,-0.100000)"
fill="#000000" stroke="none">
<path d="M3305 6645 c-229 -64 -398 -205 -497 -415 -60 -126 -83 -285 -66
-454 l3 -29 -380 -139 c-209 -76 -405 -147 -435 -158 -30 -11 -78 -28 -106
-39 l-51 -20 -48 70 c-320 469 -1029 436 -1302 -61 -32 -59 -69 -157 -81 -218
-15 -76 -8 -273 12 -347 60 -219 208 -396 412 -495 166 -80 392 -95 558 -38
49 17 60 18 70 7 7 -8 66 -104 131 -214 65 -110 161 -271 213 -359 52 -87 96
-166 99 -175 2 -9 -9 -36 -25 -61 -88 -134 -247 -380 -316 -487 -43 -68 -82
-123 -86 -123 -4 0 -27 7 -51 16 -116 41 -277 58 -379 39 -220 -39 -415 -165
-527 -342 -88 -139 -125 -269 -122 -427 6 -294 162 -542 426 -675 196 -98 446
-102 650 -11 110 50 219 136 300 237 l18 22 510 -257 c480 -242 510 -258 507
-282 -32 -305 73 -557 303 -731 212 -160 516 -193 770 -84 143 61 296 209 372
360 102 200 101 469 -1 677 -39 78 -40 73 19 134 17 17 113 118 215 224 203
213 211 220 355 372 706 740 681 715 702 702 267 -161 550 -172 803 -31 171
94 299 255 361 452 32 104 36 283 8 396 -66 261 -256 466 -509 547 -211 68
-448 39 -639 -78 -26 -17 -51 -30 -55 -30 -10 0 -1326 1319 -1326 1329 0 6 13
29 29 53 132 197 152 489 48 718 -90 200 -253 345 -469 416 -71 24 -101 28
-213 30 -109 1 -143 -2 -210 -21z m-451 -1150 c15 -24 51 -71 81 -104 30 -32
55 -62 55 -66 0 -4 -89 -144 -197 -312 -109 -167 -229 -352 -266 -411 -38 -59
-72 -111 -76 -115 -7 -7 -114 43 -498 236 l-132 67 10 32 c22 73 32 240 19
328 l-5 35 125 46 c198 74 844 308 852 309 3 0 18 -20 32 -45z m1772 -870
l665 -664 -39 -65 c-22 -36 -49 -92 -62 -126 -17 -46 -27 -59 -39 -56 -9 3
-38 8 -66 11 -27 3 -61 8 -75 10 -14 2 -45 7 -70 10 -38 5 -124 16 -220 30
-81 11 -110 15 -150 20 -25 4 -56 8 -70 10 -14 2 -68 9 -120 16 -99 12 -115
19 -116 47 -10 348 -296 664 -649 717 -51 8 -188 7 -240 0 -97 -15 -249 -79
-328 -139 -40 -30 -167 -157 -167 -167 0 -5 -4 -9 -10 -9 -19 0 -220 104 -220
113 0 6 15 33 34 61 44 67 190 292 248 381 104 162 164 254 205 316 l43 67 68
-23 c99 -34 165 -44 277 -41 145 5 285 48 391 120 21 14 40 26 42 26 2 0 303
-299 668 -665z m-2604 -181 c161 -80 294 -148 296 -149 5 -5 -21 -49 -86 -147
-31 -48 -99 -153 -151 -233 -52 -80 -98 -145 -102 -145 -4 0 -42 60 -85 133
-44 72 -83 139 -89 148 -5 9 -19 32 -29 50 -10 19 -59 100 -108 182 l-89 147
73 80 c40 44 74 80 75 80 1 0 134 -66 295 -146z m628 -314 c66 -33 120 -64
120 -69 0 -6 -4 -21 -10 -36 -21 -55 -30 -236 -16 -320 37 -225 183 -432 383
-545 56 -32 178 -76 228 -83 l30 -4 3 -610 2 -610 -57 -12 c-32 -7 -85 -24
-118 -37 -32 -13 -60 -22 -61 -21 -3 3 -240 400 -264 443 -40 70 -215 362
-238 399 -14 22 -30 49 -36 60 -6 11 -92 157 -191 323 -99 166 -188 317 -199
335 -10 17 -40 69 -68 115 -27 45 -48 88 -46 95 2 7 59 99 128 205 69 106 130
200 135 210 32 53 146 222 150 222 3 0 59 -27 125 -60z m1810 -540 c85 -11
166 -23 180 -25 14 -3 49 -7 78 -11 29 -3 63 -7 75 -10 12 -2 42 -6 67 -10 25
-3 69 -9 98 -14 29 -5 56 -9 60 -8 4 1 33 -2 65 -6 55 -8 57 -9 58 -40 5 -128
57 -286 129 -391 l32 -47 -58 -60 c-33 -33 -72 -75 -89 -92 -16 -18 -118 -124
-226 -236 -108 -113 -236 -247 -285 -298 -167 -176 -209 -220 -364 -381 -85
-89 -182 -191 -215 -226 l-60 -63 -45 34 c-64 50 -194 110 -278 131 l-72 17 0
608 c0 334 3 608 8 609 4 0 14 2 22 4 190 39 370 153 475 300 49 68 115 200
115 228 0 16 6 18 38 14 20 -3 107 -15 192 -27z m-2434 -338 c28 -48 143 -242
256 -432 542 -911 681 -1145 685 -1157 3 -7 -13 -33 -36 -58 -22 -24 -57 -69
-76 -100 -20 -30 -38 -55 -42 -55 -4 0 -983 488 -990 494 -1 0 5 26 14 56 18
67 25 236 13 305 -32 171 -96 298 -218 427 l-35 37 35 53 c39 58 148 226 252
387 37 57 70 110 73 117 3 8 8 14 12 14 3 0 29 -40 57 -88z"/>
</g>
</svg>
